<?xml version="1.0" encoding="UTF-8"?>
<svg id="uriage" xmlns="http://www.w3.org/2000/svg" version="1.1" viewBox="0 0 123.2 38.4" width="123.2" height="38.4">
  <!-- Generator: Adobe Illustrator 29.1.0, SVG Export Plug-In . SVG Version: 2.1.0 Build 142)  -->
  <polygon points="40.5 32.8 42.5 32.8 42.5 38.3 43.4 38.3 43.4 32.8 45.4 32.8 45.4 32 40.5 32 40.5 32.8"/>
  <path d="M27.5,35.8c0,1.1-.6,1.8-1.7,1.8s-1.7-.7-1.7-1.8v-3.8h-1v3.9c0,1.6.9,2.6,2.7,2.6s2.7-1,2.7-2.6v-3.9h-1v3.8Z"/>
  <path d="M13.1,32l-2.5,6.4h1l.9-2.4h2.4l.9,2.4h1l-2.5-6.4h-1.2ZM12.8,35.1l.9-2.3.9,2.3h-1.7Z"/>
  <polygon points="55.3 34.6 51.8 34.6 51.8 32 50.9 32 50.9 38.3 51.8 38.3 51.8 35.5 55.3 35.5 55.3 38.3 56.3 38.3 56.3 32 55.3 32 55.3 34.6"/>
  <polygon points="0 38.3 4.3 38.3 4.3 37.5 1 37.5 1 35.5 4.2 35.5 4.2 34.7 1 34.7 1 32.8 4.3 32.8 4.3 32 0 32 0 38.3"/>
  <polygon points="109.7 32 108.8 32 108.8 38.3 112.6 38.3 112.6 37.5 109.7 37.5 109.7 32"/>
  <polygon points="62.6 38.3 66.9 38.3 66.9 37.5 63.5 37.5 63.5 35.5 66.8 35.5 66.8 34.7 63.5 34.7 63.5 32.8 66.9 32.8 66.9 32 62.6 32 62.6 38.3"/>
  <polygon points="123.2 32.8 123.2 32 118.9 32 118.9 38.3 123.2 38.3 123.2 37.5 119.9 37.5 119.9 35.5 123.1 35.5 123.1 34.7 119.9 34.7 119.9 32.8 123.2 32.8"/>
  <path d="M77.9,33.9c0-1.2-.8-2-2-2h-2.7v6.4h1v-2.4h1.2l1.5,2.4h1.1l-1.6-2.5c.8-.1,1.6-.7,1.6-1.9ZM74.1,35v-2.2h1.6c.7,0,1.2.4,1.2,1.1s-.5,1.1-1.2,1.1h-1.6Z"/>
  <polygon points="87 36.5 85.1 32 83.8 32 83.8 38.3 84.7 38.3 84.7 33.3 86.8 38.3 87.2 38.3 89.2 33.3 89.2 38.3 90.2 38.3 90.2 32 88.8 32 87 36.5"/>
  <polygon points="106.9 .4 106.9 25.7 123.2 25.7 123.2 23.2 109.7 23.2 109.7 14.1 120.1 14.1 120.1 11.6 109.7 11.6 109.7 3 122.7 3 122.7 .4 106.9 .4"/>
  <rect x="49" y=".4" width="2.8" height="25.3"/>
  <path d="M28.5,3h5c4.2,0,6.7,1.5,6.5,5.2-.2,3.5-3,4.9-7.4,4.9h-4.2V3ZM28.5,25.7v-10.2h2.8c.5,0,1.2.3,1.6.7l10.1,12.7h3.5l-10.8-13.5c2.3-.5,4-1.4,5.1-2.5,1.2-1.2,1.9-3.1,1.9-5s-.7-3.7-1.9-4.9c-1.6-1.6-4-2.5-7.1-2.5h-8.1v25.3h2.8Z"/>
  <path d="M18.1.4v14.7c0,4.9-2.7,8.1-7.5,8.1h0s-.1,0-.1,0c-4.8,0-7.5-3.2-7.5-8.1V.4H0v15.3c0,6,3.7,10.3,10,10.3h.8c6.3,0,10-4.3,10-10.3V.4h-2.8Z"/>
  <path d="M94.1,12.9v2.6h5.8v5.8c-1.7,1.4-4.4,2.5-7.2,2.5-6.1,0-9.9-4.4-9.9-10.4h0c0-5.7,4-10.4,9.5-10.4s5.7,1.2,7.6,2.9l1.8-2.2c-2.5-2.1-5.1-3.3-9.3-3.3-7.5,0-12.5,6.1-12.5,13h0c0,7.2,4.9,13,12.7,13s7.7-1.8,10-3.8v-9.6h-8.5Z"/>
  <path d="M66.9,3.7l3.9,9.5h-7.7l3.8-9.5ZM65.6.4l-10.5,25.3h2.9l4-9.9h9.8l4.1,9.9h2.8L68.2.4h-2.6Z"/>
  <path d="M101.6,38.3h1l-2.5-6.4h-1.2l-2.5,6.4h1l.9-2.4h2.4l.9,2.4ZM98.6,35.1l.9-2.3.9,2.3h-1.7Z"/>
</svg>